<?xml version="1.0" encoding="UTF-8"?>
<svg xmlns="http://www.w3.org/2000/svg" version="1.1" viewBox="0 0 360 360">
  <!-- Generator: Adobe Illustrator 28.7.1, SVG Export Plug-In . SVG Version: 1.2.0 Build 142)  -->
  <g>
    <g id="Layer_1">
      <path d="M333,299l-35.4-35.4c16.8-23.6,26.7-52.4,26.7-83.6,0-79.7-64.6-144.2-144.2-144.2s-60,9.9-83.6,26.7L61,27,27,61l35.4,35.4c-16.8,23.6-26.7,52.4-26.7,83.6,0,79.7,64.6,144.2,144.2,144.2s60-9.9,83.6-26.7l35.4,35.4,34-34ZM180,79c55.8,0,101,45.2,101,101s-5.3,37.1-14.6,52.4L127.6,93.6c15.3-9.3,33.2-14.6,52.4-14.6ZM180,281c-55.8,0-101-45.2-101-101s5.3-37.1,14.6-52.4l138.7,138.7c-15.3,9.3-33.2,14.6-52.4,14.6Z"/>
    </g>
  </g>
</svg>